<svg xmlns="http://www.w3.org/2000/svg" width="96" height="96" viewBox="0 0 96 96">
  <path id="icons8-github" d="M44.652,2.373C22.528,4.849,4.731,23.169,2.327,45.45c-2.4,23.271,10.581,44.067,30.3,51.989,1.443.5,2.886-.5,2.886-2.476V87.041a19.309,19.309,0,0,1-4.329.5c-6.734,0-9.619-5.942-10.1-9.407A10.335,10.335,0,0,0,18.2,73.177c-1.443-.5-1.924-.5-1.924-.99,0-.99,1.443-.99,1.924-.99,2.886,0,5.291,3.466,6.253,4.951,2.4,3.961,5.291,4.951,6.734,4.951a9.38,9.38,0,0,0,4.329-.99c.481-3.466,1.924-6.932,4.81-8.912-11.062-2.476-19.239-8.912-19.239-19.805a23.714,23.714,0,0,1,5.772-14.854,18.857,18.857,0,0,1-.962-6.932,17.41,17.41,0,0,1,1.443-7.922s6.734,0,13.467,6.437a25.357,25.357,0,0,1,9.139-1.485,30.2,30.2,0,0,1,9.619,1.485A20.43,20.43,0,0,1,73.03,21.684a25.3,25.3,0,0,1,.962,7.922c0,3.961-.481,5.942-.962,6.932A22.66,22.66,0,0,1,78.8,51.391c0,10.893-8.177,17.33-19.239,19.805a15.474,15.474,0,0,1,4.81,11.388V95.458a2.635,2.635,0,0,0,3.367,2.476,49.745,49.745,0,0,0,30.3-46.047C98.041,22.179,73.511-1.092,44.652,2.373Z" transform="translate(-2.041 -2.031)" fill="#fff"/>
</svg>
